HIERARCHY
ROOT mixamorig:Hips
{
	OFFSET -0.000008 104.274872 1.554316
	CHANNELS 6 Xposition Yposition Zposition Xrotation Yrotation Zrotation
	JOINT mixamorig:Spine
	{
		OFFSET -0.000005 10.181595 0.131519
		CHANNELS 6 Xposition Yposition Zposition Xrotation Yrotation Zrotation
		JOINT mixamorig:Spine1
		{
			OFFSET -0.000000 9.893959 -1.470707
			CHANNELS 6 Xposition Yposition Zposition Xrotation Yrotation Zrotation
			JOINT mixamorig:Spine2
			{
				OFFSET -0.000000 9.220757 -1.370641
				CHANNELS 6 Xposition Yposition Zposition Xrotation Yrotation Zrotation
				JOINT mixamorig:Neck
				{
					OFFSET 0.000001 16.740417 -2.049036
					CHANNELS 6 Xposition Yposition Zposition Xrotation Yrotation Zrotation
					JOINT mixamorig:Head
					{
						OFFSET 0.000000 9.617874 1.685006
						CHANNELS 6 Xposition Yposition Zposition Xrotation Yrotation Zrotation
						JOINT mixamorig:HeadTop_End
						{
							OFFSET 0.000002 22.037354 7.501101
							CHANNELS 6 Xposition Yposition Zposition Xrotation Yrotation Zrotation
							End Site
							{
								OFFSET 0.000168 2310.654297 -282.823242
							}
						}
					}
				}
				JOINT mixamorig:RightShoulder
				{
					OFFSET -4.569970 11.014908 -2.160885
					CHANNELS 6 Xposition Yposition Zposition Xrotation Yrotation Zrotation
					JOINT mixamorig:RightArm
					{
						OFFSET -10.592851 -0.524811 -2.232101
						CHANNELS 6 Xposition Yposition Zposition Xrotation Yrotation Zrotation
						JOINT mixamorig:RightForeArm
						{
							OFFSET -27.841511 0.000031 -0.000004
							CHANNELS 6 Xposition Yposition Zposition Xrotation Yrotation Zrotation
							JOINT mixamorig:RightHand
							{
								OFFSET -28.328831 -0.000015 0.000015
								CHANNELS 6 Xposition Yposition Zposition Xrotation Yrotation Zrotation
								JOINT mixamorig:RightHandThumb1
								{
									OFFSET -2.464806 -1.573990 2.681852
									CHANNELS 6 Xposition Yposition Zposition Xrotation Yrotation Zrotation
									JOINT mixamorig:RightHandThumb2
									{
										OFFSET -3.215179 -1.872803 1.924282
										CHANNELS 6 Xposition Yposition Zposition Xrotation Yrotation Zrotation
										JOINT mixamorig:RightHandThumb3
										{
											OFFSET -2.654831 -1.527969 1.512609
											CHANNELS 6 Xposition Yposition Zposition Xrotation Yrotation Zrotation
											JOINT mixamorig:RightHandThumb4
											{
												OFFSET -2.018814 -1.152008 1.108052
												CHANNELS 6 Xposition Yposition Zposition Xrotation Yrotation Zrotation
												End Site
												{
													OFFSET -188.809540 -114.533607 132.431396
												}
											}
										}
									}
								}
								JOINT mixamorig:RightHandIndex1
								{
									OFFSET -9.108284 -0.517868 2.259835
									CHANNELS 6 Xposition Yposition Zposition Xrotation Yrotation Zrotation
									JOINT mixamorig:RightHandIndex2
									{
										OFFSET -3.699989 0.000000 0.001215
										CHANNELS 6 Xposition Yposition Zposition Xrotation Yrotation Zrotation
										JOINT mixamorig:RightHandIndex3
										{
											OFFSET -2.850006 0.000031 -0.000522
											CHANNELS 6 Xposition Yposition Zposition Xrotation Yrotation Zrotation
											JOINT mixamorig:RightHandIndex4
											{
												OFFSET -2.772186 -0.000015 -0.000020
												CHANNELS 6 Xposition Yposition Zposition Xrotation Yrotation Zrotation
												End Site
												{
													OFFSET -277.218445 0.000000 -0.050231
												}
											}
										}
									}
								}
								JOINT mixamorig:RightHandMiddle1
								{
									OFFSET -9.532516 -0.000031 -0.000023
									CHANNELS 6 Xposition Yposition Zposition Xrotation Yrotation Zrotation
									JOINT mixamorig:RightHandMiddle2
									{
										OFFSET -3.700005 -0.000015 0.003713
										CHANNELS 6 Xposition Yposition Zposition Xrotation Yrotation Zrotation
										JOINT mixamorig:RightHandMiddle3
										{
											OFFSET -2.949974 0.000015 -0.002054
											CHANNELS 6 Xposition Yposition Zposition Xrotation Yrotation Zrotation
											JOINT mixamorig:RightHandMiddle4
											{
												OFFSET -2.946640 0.000000 -0.000156
												CHANNELS 6 Xposition Yposition Zposition Xrotation Yrotation Zrotation
												End Site
												{
													OFFSET -294.664337 0.000000 -0.113670
												}
											}
										}
									}
								}
								JOINT mixamorig:RightHandRing1
								{
									OFFSET -9.103600 -0.043076 -1.865134
									CHANNELS 6 Xposition Yposition Zposition Xrotation Yrotation Zrotation
									JOINT mixamorig:RightHandRing2
									{
										OFFSET -3.379288 0.000000 -0.001055
										CHANNELS 6 Xposition Yposition Zposition Xrotation Yrotation Zrotation
										JOINT mixamorig:RightHandRing3
										{
											OFFSET -2.889687 -0.000015 0.000379
											CHANNELS 6 Xposition Yposition Zposition Xrotation Yrotation Zrotation
											JOINT mixamorig:RightHandRing4
											{
												OFFSET -2.638809 -0.000015 0.000941
												CHANNELS 6 Xposition Yposition Zposition Xrotation Yrotation Zrotation
												End Site
												{
													OFFSET -263.880371 0.000000 0.516020
												}
											}
										}
									}
								}
								JOINT mixamorig:RightHandPinky1
								{
									OFFSET -8.076683 -0.486710 -3.806280
									CHANNELS 6 Xposition Yposition Zposition Xrotation Yrotation Zrotation
									JOINT mixamorig:RightHandPinky2
									{
										OFFSET -3.600014 -0.000015 -0.003747
										CHANNELS 6 Xposition Yposition Zposition Xrotation Yrotation Zrotation
										JOINT mixamorig:RightHandPinky3
										{
											OFFSET -2.099983 0.000000 -0.005739
											CHANNELS 6 Xposition Yposition Zposition Xrotation Yrotation Zrotation
											JOINT mixamorig:RightHandPinky4
											{
												OFFSET -2.115768 -0.000031 -0.003680
												CHANNELS 6 Xposition Yposition Zposition Xrotation Yrotation Zrotation
												End Site
												{
													OFFSET -211.577087 0.000000 -0.350686
												}
											}
										}
									}
								}
							}
						}
					}
				}
				JOINT mixamorig:LeftShoulder
				{
					OFFSET 4.570447 11.014725 -2.160855
					CHANNELS 6 Xposition Yposition Zposition Xrotation Yrotation Zrotation
					JOINT mixamorig:LeftArm
					{
						OFFSET 10.592371 -0.524597 -2.232119
						CHANNELS 6 Xposition Yposition Zposition Xrotation Yrotation Zrotation
						JOINT mixamorig:LeftForeArm
						{
							OFFSET 27.841532 -0.000031 0.000026
							CHANNELS 6 Xposition Yposition Zposition Xrotation Yrotation Zrotation
							JOINT mixamorig:LeftHand
							{
								OFFSET 28.328846 -0.000061 0.000022
								CHANNELS 6 Xposition Yposition Zposition Xrotation Yrotation Zrotation
								JOINT mixamorig:LeftHandThumb1
								{
									OFFSET 2.466141 -1.576172 2.681732
									CHANNELS 6 Xposition Yposition Zposition Xrotation Yrotation Zrotation
									JOINT mixamorig:LeftHandThumb2
									{
										OFFSET 3.217812 -1.872070 1.916482
										CHANNELS 6 Xposition Yposition Zposition Xrotation Yrotation Zrotation
										JOINT mixamorig:LeftHandThumb3
										{
											OFFSET 2.656029 -1.528778 1.514513
											CHANNELS 6 Xposition Yposition Zposition Xrotation Yrotation Zrotation
											JOINT mixamorig:LeftHandThumb4
											{
												OFFSET 2.020889 -1.154053 1.115139
												CHANNELS 6 Xposition Yposition Zposition Xrotation Yrotation Zrotation
												End Site
												{
													OFFSET 190.885437 -115.081749 130.048782
												}
											}
										}
									}
								}
								JOINT mixamorig:LeftHandIndex1
								{
									OFFSET 9.109314 -0.518021 2.259871
									CHANNELS 6 Xposition Yposition Zposition Xrotation Yrotation Zrotation
									JOINT mixamorig:LeftHandIndex2
									{
										OFFSET 3.699989 0.000000 -0.000322
										CHANNELS 6 Xposition Yposition Zposition Xrotation Yrotation Zrotation
										JOINT mixamorig:LeftHandIndex3
										{
											OFFSET 2.850006 0.000000 0.000352
											CHANNELS 6 Xposition Yposition Zposition Xrotation Yrotation Zrotation
											JOINT mixamorig:LeftHandIndex4
											{
												OFFSET 2.774864 -0.000031 -0.000027
												CHANNELS 6 Xposition Yposition Zposition Xrotation Yrotation Zrotation
												End Site
												{
													OFFSET 277.486267 0.000000 -0.009857
												}
											}
										}
									}
								}
								JOINT mixamorig:LeftHandMiddle1
								{
									OFFSET 9.533394 0.000061 0.000044
									CHANNELS 6 Xposition Yposition Zposition Xrotation Yrotation Zrotation
									JOINT mixamorig:LeftHandMiddle2
									{
										OFFSET 3.699989 -0.000015 -0.000231
										CHANNELS 6 Xposition Yposition Zposition Xrotation Yrotation Zrotation
										JOINT mixamorig:LeftHandMiddle3
										{
											OFFSET 2.949997 -0.000015 -0.000059
											CHANNELS 6 Xposition Yposition Zposition Xrotation Yrotation Zrotation
											JOINT mixamorig:LeftHandMiddle4
											{
												OFFSET 2.952896 0.000031 0.000063
												CHANNELS 6 Xposition Yposition Zposition Xrotation Yrotation Zrotation
												End Site
												{
													OFFSET 295.289337 0.000000 0.022810
												}
											}
										}
									}
								}
								JOINT mixamorig:LeftHandRing1
								{
									OFFSET 9.104523 -0.042999 -1.865074
									CHANNELS 6 Xposition Yposition Zposition Xrotation Yrotation Zrotation
									JOINT mixamorig:LeftHandRing2
									{
										OFFSET 3.150009 -0.000031 0.000043
										CHANNELS 6 Xposition Yposition Zposition Xrotation Yrotation Zrotation
										JOINT mixamorig:LeftHandRing3
										{
											OFFSET 2.949982 -0.000015 0.000040
											CHANNELS 6 Xposition Yposition Zposition Xrotation Yrotation Zrotation
											JOINT mixamorig:LeftHandRing4
											{
												OFFSET 2.644348 0.000000 0.000057
												CHANNELS 6 Xposition Yposition Zposition Xrotation Yrotation Zrotation
												End Site
												{
													OFFSET 264.434631 0.000000 0.012105
												}
											}
										}
									}
								}
								JOINT mixamorig:LeftHandPinky1
								{
									OFFSET 8.077789 -0.486847 -3.806259
									CHANNELS 6 Xposition Yposition Zposition Xrotation Yrotation Zrotation
									JOINT mixamorig:LeftHandPinky2
									{
										OFFSET 3.599953 0.000031 0.014727
										CHANNELS 6 Xposition Yposition Zposition Xrotation Yrotation Zrotation
										JOINT mixamorig:LeftHandPinky3
										{
											OFFSET 2.100021 0.000015 0.007705
											CHANNELS 6 Xposition Yposition Zposition Xrotation Yrotation Zrotation
											JOINT mixamorig:LeftHandPinky4
											{
												OFFSET 2.125504 0.000031 0.007517
												CHANNELS 6 Xposition Yposition Zposition Xrotation Yrotation Zrotation
												End Site
												{
													OFFSET 212.550781 0.000000 0.625752
												}
											}
										}
									}
								}
							}
						}
					}
				}
			}
		}
	}
	JOINT mixamorig:RightUpLeg
	{
		OFFSET -8.207787 -6.751648 -1.599560
		CHANNELS 6 Xposition Yposition Zposition Xrotation Yrotation Zrotation
		JOINT mixamorig:RightLeg
		{
			OFFSET -0.000002 -44.370117 0.345942
			CHANNELS 6 Xposition Yposition Zposition Xrotation Yrotation Zrotation
			JOINT mixamorig:RightFoot
			{
				OFFSET 0.000003 -44.423679 -3.043532
				CHANNELS 6 Xposition Yposition Zposition Xrotation Yrotation Zrotation
				JOINT mixamorig:RightToeBase
				{
					OFFSET -0.000002 -8.728671 10.710558
					CHANNELS 6 Xposition Yposition Zposition Xrotation Yrotation Zrotation
					JOINT mixamorig:RightToe_End
					{
						OFFSET -0.000001 -0.000679 9.278119
						CHANNELS 6 Xposition Yposition Zposition Xrotation Yrotation Zrotation
						End Site
						{
							OFFSET 0.000000 -0.067690 927.812134
						}
					}
				}
			}
		}
	}
	JOINT mixamorig:LeftUpLeg
	{
		OFFSET 8.207793 -6.751686 -1.599556
		CHANNELS 6 Xposition Yposition Zposition Xrotation Yrotation Zrotation
		JOINT mixamorig:LeftLeg
		{
			OFFSET -0.000004 -44.370014 0.346954
			CHANNELS 6 Xposition Yposition Zposition Xrotation Yrotation Zrotation
			JOINT mixamorig:LeftFoot
			{
				OFFSET -0.000001 -44.423672 -3.044401
				CHANNELS 6 Xposition Yposition Zposition Xrotation Yrotation Zrotation
				JOINT mixamorig:LeftToeBase
				{
					OFFSET -0.000002 -8.728669 10.710558
					CHANNELS 6 Xposition Yposition Zposition Xrotation Yrotation Zrotation
					JOINT mixamorig:LeftToe_End
					{
						OFFSET -0.000003 -0.000679 9.278133
						CHANNELS 6 Xposition Yposition Zposition Xrotation Yrotation Zrotation
						End Site
						{
							OFFSET 0.000000 -0.068021 927.813477
						}
					}
				}
			}
		}
	}
}
MOTION
Frames: 3
Frame Time: 0.033333
0.000006 104.270477 1.554256 0.000010 0.000003 -0.000113 -0.000005 10.181587 0.131522 0.000001 -0.000003 0.000084 -0.000000 9.893967 -1.470711 0.000001 0.000000 -0.000000 -0.000000 9.220802 -1.370642 0.000000 -0.000000 -0.000000 0.000001 16.740433 -2.049030 0.000000 -0.000000 -0.000000 0.000000 9.617859 1.685014 0.000000 0.000000 0.000000 0.000002 22.037384 7.501101 0.000000 -0.000000 0.000000 -4.569968 11.014880 -2.160881 0.000008 0.000001 -0.000038 -10.592876 -0.524739 -2.231928 75.936493 23.981930 -18.822342 -27.841511 -0.000004 0.000568 -47.800915 114.764622 69.402126 -28.328821 0.000021 0.000027 -0.000322 -0.000045 0.000007 -2.464422 -1.573739 2.682317 -50.933602 -168.063143 -18.307204 -3.215253 -1.872525 1.924634 150.489216 32.496496 14.481034 -2.654967 -1.527887 1.513073 146.669624 27.474081 -31.844073 -2.018841 -1.152015 1.108069 -0.000004 -0.000002 -0.000001 -9.108388 -0.517561 2.260111 93.541975 17.014271 -18.132450 -3.700084 0.000309 0.001502 91.627206 15.857816 -16.283745 -2.850075 0.000359 -0.000264 91.603745 13.786475 -14.172967 -2.772172 -0.000015 -0.000016 0.000002 0.000000 0.000001 -9.532602 0.000257 0.000185 85.341561 16.537292 -15.392798 -3.700053 0.000322 0.003946 87.314679 13.235303 -12.542504 -2.950056 0.000330 -0.001819 91.047979 12.917648 -13.146703 -2.946649 0.000003 -0.000152 0.000006 -0.000001 0.000001 -9.103705 -0.042774 -1.864887 85.642028 18.817870 -17.418243 -3.379327 0.000305 -0.000854 86.401579 8.654263 -8.145039 -2.889757 0.000347 0.000630 94.067790 6.169823 -6.671561 -2.638813 -0.000013 0.000935 0.000002 0.000002 -0.000002 -8.076764 -0.486412 -3.806052 78.787304 19.897082 -16.264849 -3.600042 0.000273 -0.003567 80.511674 7.294041 -5.881561 -2.100012 0.000319 -0.005556 82.871116 3.116347 -2.564393 -2.115765 -0.000026 -0.003676 0.000002 -0.000002 -0.000001 4.570446 11.014691 -2.160851 -0.000018 0.000010 -0.000021 10.592499 -0.524536 -2.232387 58.519872 -59.121865 35.256866 27.841715 -0.000100 -0.000081 62.751195 -109.579354 81.663415 28.328823 -0.000012 0.000040 0.000019 -0.000089 0.000000 2.466147 -1.576174 2.681875 115.841511 145.836847 -158.782828 3.217815 -1.872009 1.916541 252.792842 41.229126 49.978338 2.656019 -1.528790 1.514605 -157.687457 36.634338 90.837029 2.020895 -1.154085 1.115152 0.000001 0.000003 0.000001 9.109239 -0.517742 2.260104 -124.669093 -12.886103 -24.300036 3.699908 0.000275 -0.000089 -120.069781 -13.549874 -23.303043 2.849941 0.000282 0.000588 -116.111440 -12.911889 -20.571065 2.774882 -0.000030 -0.000020 0.000001 -0.000001 -0.000001 9.533415 0.000039 0.000111 -188.100200 -18.048760 -228.110751 3.700046 0.000222 -0.000382 -269.399518 -6.813113 6.882207 2.950004 0.000043 -0.000190 -316.686010 1.297396 -0.514242 2.952864 -0.000015 0.000065 -0.000000 0.000002 0.000001 9.104671 -0.042918 -1.865043 -195.015479 -16.562223 -264.309087 3.149969 0.000214 -0.000167 -281.874066 9.314028 -7.563979 2.949955 0.000074 -0.000109 -324.035403 14.962313 -4.881026 2.644318 0.000030 0.000059 -0.000001 -0.000000 -0.000000 8.077937 -0.486754 -3.806219 -193.830373 -13.205841 -268.710488 3.599904 0.000233 0.014497 -280.949122 11.656132 -9.356224 2.099946 0.000069 0.007545 -318.247883 18.790079 -7.148221 2.125519 0.000002 0.007514 -0.000000 0.000000 -0.000000 -8.207786 -6.751667 -1.599560 -0.077001 -0.000003 0.000080 -0.000002 -44.370110 0.345938 0.153719 -0.000000 -0.000000 0.000000 -44.423679 -3.043532 -0.076700 0.000000 -0.000002 -0.000006 -8.728667 10.710559 -0.000009 -0.000000 -0.000000 -0.000001 -0.000679 9.278123 0.000000 -0.000000 -0.000000 8.207792 -6.751710 -1.599556 -0.074518 -0.000003 0.000081 -0.000002 -44.370014 0.346960 0.148822 0.000002 0.000000 -0.000001 -44.423664 -3.044403 -0.074314 0.000000 -0.000002 -0.000004 -8.728671 10.710558 0.000007 -0.000000 -0.000000 0.000000 -0.000680 9.278137 -0.000000 0.000000 -0.000001 
0.000006 104.270477 1.554256 0.000010 0.000003 -0.000113 -0.000005 10.181587 0.131522 0.000001 -0.000003 0.000084 -0.000000 9.893967 -1.470711 0.000001 0.000000 -0.000000 -0.000000 9.220802 -1.370642 0.000000 -0.000000 -0.000000 0.000001 16.740433 -2.049030 0.000000 -0.000000 -0.000000 0.000000 9.617859 1.685014 0.000000 0.000000 0.000000 0.000002 22.037384 7.501101 0.000000 -0.000000 0.000000 -4.569968 11.014880 -2.160881 0.000008 0.000001 -0.000038 -10.592877 -0.524744 -2.231922 75.774590 24.713426 -19.347918 -27.841513 0.000004 0.000556 -47.612637 114.007933 68.389598 -28.328840 0.000022 0.000033 -0.000323 -0.000043 0.000006 -2.464427 -1.573735 2.682308 -51.767821 -169.414359 -20.914347 -3.215275 -1.872577 1.924628 151.118769 32.369185 12.617155 -2.654969 -1.527867 1.513064 147.101033 27.358953 -32.355071 -2.018830 -1.151997 1.108059 -0.000006 -0.000003 0.000000 -9.108394 -0.517556 2.260097 93.494238 17.366746 -18.491303 -3.700082 0.000301 0.001509 91.930596 15.954700 -16.469118 -2.850082 0.000350 -0.000274 91.736967 13.830482 -14.250960 -2.772153 0.000001 -0.000020 -0.000001 0.000000 0.000002 -9.532593 0.000270 0.000194 85.269024 16.416985 -15.262220 -3.700068 0.000325 0.003945 87.588427 12.889070 -12.270192 -2.950040 0.000339 -0.001824 90.828634 12.848065 -13.026338 -2.946616 0.000002 -0.000155 0.000005 -0.000001 -0.000001 -9.103706 -0.042763 -1.864890 85.491559 18.782250 -17.340076 -3.379327 0.000317 -0.000847 86.438400 8.406336 -7.917093 -2.889752 0.000351 0.000634 93.763245 6.046694 -6.504672 -2.638820 -0.000018 0.000943 -0.000002 -0.000000 0.000001 -8.076746 -0.486407 -3.806049 78.910767 19.959915 -16.352286 -3.600045 0.000295 -0.003563 80.534474 7.274800 -5.867703 -2.100018 0.000319 -0.005524 82.592451 3.120370 -2.555367 -2.115759 -0.000040 -0.003685 0.000002 0.000000 -0.000004 4.570446 11.014691 -2.160851 -0.000018 0.000010 -0.000021 10.592505 -0.524541 -2.232390 59.344208 -60.497697 36.758244 27.841721 -0.000093 -0.000071 63.119793 -109.607427 82.102671 28.328842 -0.000011 0.000030 0.000024 -0.000091 -0.000001 2.466151 -1.576153 2.681864 120.086637 148.315181 -161.227134 3.217823 -1.871998 1.916564 258.979245 41.832030 46.003776 2.655991 -1.528810 1.514609 -158.223572 39.896419 93.948446 2.020887 -1.154069 1.115133 0.000001 0.000004 0.000004 9.109242 -0.517751 2.260107 -120.074985 -12.944870 -22.254460 3.699927 0.000258 -0.000105 -116.738848 -11.931998 -19.275731 2.849964 0.000261 0.000596 -113.469537 -11.157600 -16.936545 2.774877 -0.000031 -0.000027 -0.000000 0.000003 0.000001 9.533209 0.000045 0.000130 -178.935711 -17.066438 -172.960361 3.700014 0.000208 -0.000392 -271.811995 -2.408656 2.331424 2.950002 0.000024 -0.000184 -327.631607 5.257746 -1.526330 2.952872 0.000001 0.000071 0.000001 0.000002 0.000001 9.104547 -0.043032 -1.865026 -185.969481 -15.585194 -221.700332 3.149949 0.000216 -0.000172 -283.729009 17.122417 -13.480448 2.949955 0.000045 -0.000084 -338.425683 20.451147 -3.936886 2.644313 0.000021 0.000068 0.000002 0.000002 0.000002 8.077826 -0.486869 -3.806203 -185.476929 -11.150959 -226.545681 3.599883 0.000235 0.014524 -282.577357 19.228309 -15.254112 2.099956 0.000060 0.007551 -327.502544 23.537023 -6.928081 2.125484 0.000014 0.007513 -0.000001 0.000005 0.000004 -8.207786 -6.751667 -1.599560 -0.077001 -0.000003 0.000080 -0.000002 -44.370110 0.345938 0.153719 -0.000000 -0.000000 0.000000 -44.423679 -3.043532 -0.076700 0.000000 -0.000002 -0.000006 -8.728667 10.710559 -0.000009 -0.000000 -0.000000 -0.000001 -0.000679 9.278123 0.000000 -0.000000 -0.000000 8.207792 -6.751710 -1.599556 -0.074518 -0.000003 0.000081 -0.000002 -44.370014 0.346960 0.148822 0.000002 0.000000 -0.000001 -44.423664 -3.044403 -0.074314 0.000000 -0.000002 -0.000004 -8.728671 10.710558 0.000007 -0.000000 -0.000000 0.000000 -0.000680 9.278137 -0.000000 0.000000 -0.000001 
0.000006 104.270477 1.554256 0.000010 0.000003 -0.000113 -0.000005 10.181587 0.131522 0.000001 -0.000003 0.000084 -0.000000 9.893967 -1.470711 0.000001 0.000000 -0.000000 -0.000000 9.220802 -1.370642 0.000000 -0.000000 -0.000000 0.000001 16.740433 -2.049030 0.000000 -0.000000 -0.000000 0.000000 9.617859 1.685014 0.000000 0.000000 0.000000 0.000002 22.037384 7.501101 0.000000 -0.000000 0.000000 -4.569968 11.014880 -2.160881 0.000008 0.000001 -0.000038 -10.592875 -0.524754 -2.231919 75.677731 26.610892 -20.818137 -27.841511 0.000010 0.000567 -47.411290 112.387368 66.509145 -28.328831 0.000019 0.000020 -0.000320 -0.000046 0.000005 -2.464432 -1.573733 2.682319 -50.793545 -167.760975 -17.876774 -3.215268 -1.872553 1.924643 151.287925 32.278579 11.732505 -2.654950 -1.527886 1.513065 146.894802 27.430280 -31.940003 -2.018827 -1.152013 1.108063 -0.000003 0.000002 0.000005 -9.108400 -0.517539 2.260100 93.790921 17.407529 -18.629278 -3.700080 0.000308 0.001483 91.959427 15.787878 -16.304946 -2.850103 0.000357 -0.000272 91.505369 13.717389 -14.078018 -2.772137 -0.000000 -0.000021 0.000001 0.000000 0.000002 -9.532602 0.000262 0.000199 85.668351 16.188779 -15.155539 -3.700075 0.000318 0.003946 87.540007 12.548789 -11.933944 -2.950064 0.000311 -0.001820 90.323173 12.748852 -12.813137 -2.946633 0.000014 -0.000154 -0.000007 0.000001 0.000000 -9.103710 -0.042766 -1.864896 85.709209 18.524764 -17.165587 -3.379331 0.000328 -0.000847 86.584259 8.206985 -7.749285 -2.889775 0.000353 0.000630 93.489396 6.125860 -6.557817 -2.638809 -0.000001 0.000941 0.000002 -0.000001 0.000000 -8.076775 -0.486400 -3.806046 79.157337 19.980187 -16.440066 -3.600048 0.000278 -0.003565 80.663947 7.505280 -6.076089 -2.100007 0.000320 -0.005546 82.699555 3.470269 -2.867156 -2.115756 -0.000044 -0.003681 0.000004 0.000001 -0.000002 4.570446 11.014691 -2.160851 -0.000018 0.000010 -0.000021 10.592509 -0.524542 -2.232388 60.396986 -63.760724 39.797897 27.841722 -0.000074 -0.000094 62.758763 -109.061093 81.128816 28.328836 -0.000012 0.000026 0.000019 -0.000087 0.000001 2.466150 -1.576162 2.681877 120.550858 150.301810 -161.622316 3.217813 -1.871992 1.916546 260.029427 40.434051 44.722682 2.656021 -1.528790 1.514610 -155.169289 41.979149 92.274333 2.020887 -1.154087 1.115146 -0.000002 0.000004 0.000004 9.109231 -0.517771 2.260120 -116.674207 -14.587136 -23.437722 3.699920 0.000247 -0.000099 -115.230195 -12.384417 -19.430712 2.849966 0.000270 0.000579 -113.598354 -10.293069 -15.671647 2.774880 -0.000047 -0.000029 -0.000003 -0.000002 -0.000000 9.533122 0.000270 0.000185 -166.462584 -16.894265 -102.742485 3.700022 0.000187 -0.000386 -275.446913 -1.816291 1.649265 2.950009 0.000035 -0.000171 -328.597314 5.972151 -1.679696 2.952872 -0.000044 0.000062 0.000003 0.000001 0.000001 9.104266 -0.042842 -1.864938 -168.136199 -15.962014 -106.914795 3.149916 0.000195 -0.000172 -288.289116 26.218374 -19.106054 2.949912 0.000021 -0.000104 -335.712732 25.444509 -5.562577 2.644310 0.000030 0.000060 -0.000001 -0.000006 0.000003 8.077544 -0.486550 -3.806113 -164.670588 -10.713305 -70.379219 3.599855 0.000173 0.014525 -291.270166 31.527774 -21.762844 2.099956 0.000054 0.007552 -328.556852 27.497081 -7.879605 2.125498 0.000000 0.007530 -0.000001 -0.000002 -0.000001 -8.207786 -6.751667 -1.599560 -0.077001 -0.000003 0.000080 -0.000002 -44.370110 0.345938 0.153719 -0.000000 -0.000000 0.000000 -44.423679 -3.043532 -0.076700 0.000000 -0.000002 -0.000006 -8.728667 10.710559 -0.000009 -0.000000 -0.000000 -0.000001 -0.000679 9.278123 0.000000 -0.000000 -0.000000 8.207792 -6.751710 -1.599556 -0.074518 -0.000003 0.000081 -0.000002 -44.370014 0.346960 0.148822 0.000002 0.000000 -0.000001 -44.423664 -3.044403 -0.074314 0.000000 -0.000002 -0.000004 -8.728671 10.710558 0.000007 -0.000000 -0.000000 0.000000 -0.000680 9.278137 -0.000000 0.000000 -0.000001 
